<?xml version="1.0" encoding="UTF-8"?><svg xmlns="http://www.w3.org/2000/svg" viewBox="0 0 369.94 330.38"><defs><style>.d{fill:#020151;}.e{fill:#fff;}.f{fill:#fcfdff;font-family:BeausiteClassic-Semibold, Beausite Classic;font-size:62.48px;font-weight:700;}.g{fill:#b60c15;}</style></defs><g id="a"/><g id="b"><g id="c"><circle class="d" cx="165.19" cy="165.19" r="165.19"/><circle class="e" cx="311.78" cy="176.6" r="58.16"/><circle class="g" cx="311.78" cy="176.6" r="47.08"/><text class="f" transform="translate(283.92 194.17)"><tspan x="0" y="0">nl</tspan></text><path class="e" d="M88.01,138.76v33.37c0,2.47-1.36,4.47-3.03,4.47h-.6c-1.73,0-3.15,2.07-3.15,4.64v36.39c0,2.47-1.36,4.47-3.03,4.47h-27.8c-1.67,0-3.03-2-3.03-4.47v-36.57c0-2.46-1.35-4.46-3.02-4.46-.73,0-1.39-.43-1.87-1.14-.48-.7-.77-1.68-.77-2.76v-33.94c0-4.21,2.34-7.66,5.19-7.66h35.91c2.86,0,5.19,3.45,5.19,7.66Z"/><path class="e" d="M99.75,136.02v35.66c0,2.71-2.22,4.92-4.92,4.92H36.36c-2.71,0-4.92-2.22-4.92-4.92v-35.66c0-2.71,2.21-4.92,4.92-4.92h58.47c.08,0,.17,0,.26,0,.08,0,.17,0,.25,.02,2.3,.24,4.16,2.09,4.39,4.39,.01,.08,.02,.17,.02,.25,0,.09,0,.17,0,.26Z"/><path class="e" d="M175.34,135.57v82.07c0,2.46-2.01,4.47-4.47,4.47h-6.86c-2.47,0-4.47-2-4.47-4.47v-44.16c0-1.04-.42-1.99-1.1-2.67s-1.56-1.07-2.55-1.1c-2.14-.06-3.89,1.82-3.89,3.96v43.96c0,2.47-2,4.47-4.47,4.47h-13.42c-2.47,0-4.47-2-4.47-4.47v-44.16c0-1.04-.42-1.99-1.1-2.67-.68-.68-1.62-1.1-2.66-1.1-2.09,0-3.77,1.69-3.77,3.77v44.16c0,2.47-2,4.47-4.47,4.47h-5.78c-2.46,0-4.47-2.01-4.47-4.47v-82.07c0-2.46,2.01-4.47,4.47-4.47h59.01c2.46,0,4.47,2.01,4.47,4.47Z"/><path class="e" d="M182.98,217.64v-82.07c0-2.46,2.01-4.47,4.47-4.47h6.86c2.47,0,4.47,2,4.47,4.47v44.16c0,1.04,.42,1.99,1.1,2.67s1.56,1.07,2.55,1.1c2.14,.06,3.89-1.82,3.89-3.96v-43.96c0-2.47,2-4.47,4.47-4.47h13.42c2.47,0,4.47,2,4.47,4.47v44.16c0,1.04,.42,1.99,1.1,2.67,.68,.68,1.62,1.1,2.66,1.1,2.09,0,3.77-1.69,3.77-3.77v-44.16c0-2.47,2-4.47,4.47-4.47h5.78c2.46,0,4.47,2.01,4.47,4.47v82.07c0,2.46-2.01,4.47-4.47,4.47h-59.01c-2.46,0-4.47-2.01-4.47-4.47Z"/></g></g></svg>